<svg xmlns="http://www.w3.org/2000/svg" viewBox="0 0 1024 1024" role="img" aria-labelledby="t d">
 <title id="t">Comic Fox</title>
 <desc id="d">Comic book: action burst, speed lines, halftone shading, thick-to-thin black inks, caption box and outlined lettering.</desc>
 <defs>
  <clipPath id="panel">
   <rect width="1024" height="1024"/>
  </clipPath>
  <pattern id="ht-dark" width="12" height="12" patternUnits="userSpaceOnUse" patternTransform="rotate(45)">
   <rect width="12" height="12" fill="#e63946"/>
   <circle cx="6" cy="6" r="3.4" fill="#9e1b2a"/>
  </pattern>
  <pattern id="ht-bg" width="18" height="18" patternUnits="userSpaceOnUse" patternTransform="rotate(45)">
   <rect width="18" height="18" fill="#ffd60a"/>
   <circle cx="9" cy="9" r="4" fill="#ff9f1c"/>
  </pattern>
  <pattern id="ht-sky" width="16" height="16" patternUnits="userSpaceOnUse" patternTransform="rotate(45)">
   <rect width="16" height="16" fill="#00b4d8"/>
   <circle cx="8" cy="8" r="3" fill="#0077b6"/>
  </pattern>
 </defs>
 <rect id="panel-bg" width="1024" height="1024" fill="url(#ht-sky)"/>
 <polygon id="burst" clip-path="url(#panel)" points="1100,470 863,552 1058,709 807,705 936,920 702,830 750,1076 561,912 522,1159 400,940 278,1159 239,912 50,1076 98,830 -136,920 -7,705 -258,709 -63,552 -300,470 -63,388 -258,231 -7,235 -136,20 98,110 50,-136 239,28 278,-219 400,0 522,-219 561,28 750,-136 702,110 936,20 807,235 1058,231 863,388" fill="url(#ht-bg)" stroke="#111" stroke-width="6"/>
 <g id="speed-lines" clip-path="url(#panel)" stroke="#fff8e1" stroke-width="5" opacity="0.75">
  <path d="M729 487L1298 517"/>
  <path d="M722 538L1280 657"/>
  <path d="M708 588L1240 792"/>
  <path d="M685 635L1179 920"/>
  <path d="M656 677L1099 1036"/>
  <path d="M620 715L1002 1138"/>
  <path d="M579 746L890 1224"/>
  <path d="M534 771L766 1292"/>
  <path d="M485 788L632 1339"/>
  <path d="M434 798L494 1365"/>
  <path d="M382 799L352 1368"/>
  <path d="M331 792L212 1350"/>
  <path d="M281 778L77 1310"/>
  <path d="M235 755L-49 1249"/>
  <path d="M192 726L-166 1169"/>
  <path d="M154 690L-268 1072"/>
  <path d="M123 649L-354 960"/>
  <path d="M98 604L-422 836"/>
  <path d="M81 555L-469 702"/>
  <path d="M71 504L-495 564"/>
  <path d="M70 452L-498 422"/>
  <path d="M77 401L-480 282"/>
  <path d="M91 351L-440 147"/>
  <path d="M114 305L-379 19"/>
  <path d="M143 262L-299-96"/>
  <path d="M179 224L-202-198"/>
  <path d="M220 193L-90-284"/>
  <path d="M265 168L33-352"/>
  <path d="M314 151L167-399"/>
  <path d="M365 141L305-425"/>
  <path d="M417 140L447-428"/>
  <path d="M468 147L587-410"/>
  <path d="M518 161L722-370"/>
  <path d="M565 184L850-309"/>
  <path d="M607 213L966-229"/>
  <path d="M645 249L1068-132"/>
  <path d="M676 290L1154-20"/>
  <path d="M701 335L1222 103"/>
  <path d="M718 384L1269 237"/>
  <path d="M728 435L1295 375"/>
 </g>
 <rect id="ground" y="846" width="1024" height="178" fill="#2a9d8f" stroke="#111" stroke-width="8" clip-path="url(#panel)"/>
 <g id="fox-color">
  <path d="M700 800C770 846 880 838 924 752 962 676 940 560 872 486 866 566 842 628 790 664 758 686 730 694 700 694Z" fill="#e63946"/>
  <path d="M430 500C520 470 610 500 690 580 750 640 780 720 760 800 752 828 736 840 700 840L470 840C450 840 446 822 452 806L436 700C422 640 404 590 410 540Z" fill="#f77f00"/>
  <path d="M600 640C680 640 750 700 752 780 752 816 736 840 700 840L580 840C560 800 556 700 600 640Z" fill="url(#ht-dark)"/>
  <path d="M872 486C940 560 962 676 926 742 922 680 900 600 850 540 858 522 866 504 872 486Z" fill="#fff8e1"/>
  <path d="M500 760L540 752 548 826C550 838 544 844 532 844L484 844C486 830 494 822 498 800Z" fill="#3d1f14"/>
  <path d="M410 545C440 562 472 570 490 600 470 650 458 700 458 770L426 770C412 700 396 610 410 545Z" fill="#fff8e1"/>
  <path d="M424 740L456 730 482 730 490 822C494 836 486 844 472 844L404 844C388 844 388 826 404 820L418 790Z" fill="#2a1510"/>
  <path d="M232 486C262 462 292 438 318 420L334 352 352 222 410 338 468 240 492 362C510 392 514 430 512 462L536 516 488 528 468 562C430 552 380 552 340 540 312 534 282 520 256 512 242 504 234 496 232 486Z" fill="#f77f00"/>
  <path d="M490 520L536 516 510 548 468 562Z" fill="#fff8e1"/>
  <path d="M232 486C262 462 292 438 318 430 340 440 372 470 420 492 452 508 480 516 488 528L468 562C430 552 380 552 340 540 312 534 282 520 256 512 242 504 234 496 232 486Z" fill="#fff8e1"/>
  <path d="M352 300L358 248 392 322Z" fill="#111"/>
  <path d="M452 306L468 262 478 342Z" fill="#111"/>
 </g>
 <g id="ink" fill="none" stroke="#111" stroke-linejoin="round" stroke-linecap="round">
  <g stroke-width="13">
   <path d="M700 800C770 846 880 838 924 752 962 676 940 560 872 486 866 566 842 628 790 664 758 686 730 694 700 694Z"/>
   <path d="M430 500C520 470 610 500 690 580 750 640 780 720 760 800 752 828 736 840 700 840L470 840C450 840 446 822 452 806L436 700C422 640 404 590 410 540Z"/>
   <path d="M232 486C262 462 292 438 318 420L334 352 352 222 410 338 468 240 492 362C510 392 514 430 512 462L536 516 488 528 468 562C430 552 380 552 340 540 312 534 282 520 256 512 242 504 234 496 232 486Z"/>
  </g>
  <g stroke-width="6">
   <path d="M872 486C940 560 962 676 926 742 922 680 900 600 850 540 858 522 866 504 872 486Z"/>
   <path d="M600 640C680 640 750 700 752 780 752 816 736 840 700 840L580 840C560 800 556 700 600 640Z"/>
   <path d="M410 545C440 562 472 570 490 600 470 650 458 700 458 770L426 770C412 700 396 610 410 545Z"/>
   <path d="M232 486C262 462 292 438 318 430 340 440 372 470 420 492 452 508 480 516 488 528L468 562C430 552 380 552 340 540 312 534 282 520 256 512 242 504 234 496 232 486Z"/>
   <path d="M424 740L456 730 482 730 490 822C494 836 486 844 472 844L404 844C388 844 388 826 404 820L418 790Z"/>
   <path d="M500 760L540 752 548 826C550 838 544 844 532 844L484 844C486 830 494 822 498 800Z"/>
  </g>
  <path d="M560 600q30 20 44 52M620 560q22 18 30 40M820 600q20 30 20 70" stroke-width="5"/>
 </g>
 <g id="face">
  <path d="M318 452Q338 436 362 448 340 462 318 452Z" fill="#111"/>
  <circle cx="236" cy="488" r="12" fill="#111"/>
  <circle cx="344" cy="446" r="4" fill="#fff"/>
 </g>
 <g id="balloon">
  <path d="M560 150C560 60 920 60 920 150 920 240 700 250 640 236L560 300 590 222C570 205 560 180 560 150Z" fill="#fff" stroke="#111" stroke-width="7" stroke-linejoin="round"/>
  <path d="M652.3 260V217.6L631.7 131.1H657.2L664.4 174.7 671.6 131.1H697.1L676.6 217.6V260ZM706.4 260V131.1H731.3V260ZM745.6 260V131.1H779.6Q790.3 131.1 796.6 135.9 802.9 140.6 805.6 149.4 808.3 158.2 808.3 170.4 808.3 182.1 806 190.7 803.7 199.4 797.9 204.2 792.1 209 781.4 209H770.9V260ZM770.9 185.8H772.4Q779.6 185.8 781.2 181.8 782.8 177.7 782.8 169.9 782.8 162.6 781.2 158.6 779.6 154.6 773.8 154.6H770.9ZM823.9 224.9L818.7 131.1H845L839.8 224.9ZM818.7 259.9V238.1H845V259.9Z" fill="#e63946" stroke="#111" stroke-width="6" paint-order="stroke" stroke-linejoin="round" transform="rotate(-4 740 200)"/>
 </g>
 <g id="caption">
  <rect x="60" y="64" width="468" height="66" fill="#ffd60a" stroke="#111" stroke-width="6"/>
  <path d="M79.4 112V81.1H88.8L91.4 99.9 94 81.1H103.5V112H97.8V89.7L94.3 112H88.7L85 89.7V112ZM108.2 112V81.1H120.6V87H114.5V93.1H120.4V98.9H114.5V106H121V112ZM124.2 112L127.2 81.1H137.7L140.6 112H134.8L134.3 107H130.6L130.2 112ZM131 102.1H133.9L132.5 86.3H132.2ZM144.5 112V81.1H150.9L153.7 95.9V81.1H159.7V112H153.7L150.6 96.5V112ZM166.9 112L163.6 81.1H169.6L171.3 100.6 173 81.1H178.8L180.5 100.6 182.1 81.1H188.2L184.9 112H177.4L175.9 97.1 174.4 112ZM192.1 112V81.1H198.2V92.1H201.2V81.1H207.3V112H201.2V98H198.2V112ZM211.8 112V81.1H217.7V112ZM222.2 112V81.1H228.4V106.7H234.8V112ZM238.5 112V81.1H250.9V87H244.8V93.1H250.6V98.9H244.8V106H251.3V112ZM256 116.1L257.2 112H254.9V106.7H261.5V111.8L259.7 116.1ZM276 112V81.1H282V112ZM286.4 112V81.1H292.8L295.6 95.9V81.1H301.6V112H295.6L292.5 96.5V112ZM319.5 112V87H315.8V81.1H329.3V87H325.6V112ZM333 112V81.1H339.2V92.1H342.1V81.1H348.3V112H342.1V98H339.2V112ZM353 112V81.1H365.4V87H359.3V93.1H365.1V98.9H359.3V106H365.8V112ZM382.7 112L379.4 81.1H385.4L387.1 100.6 388.9 81.1H394.6L396.3 100.6 397.9 81.1H404L400.7 112H393.2L391.7 97.1 390.2 112ZM415.3 112.3Q411.6 112.3 409.6 110 407.6 107.8 407.6 103.6V88.9Q407.6 84.9 409.6 82.8 411.5 80.8 415.3 80.8 419 80.8 421 82.8 422.9 84.9 422.9 88.9V103.6Q422.9 107.8 420.9 110 419 112.3 415.3 112.3ZM415.3 106.6Q416.7 106.6 416.7 103.9V88.8Q416.7 86.5 415.4 86.5 413.8 86.5 413.8 88.8V103.9Q413.8 105.3 414.2 106 414.5 106.6 415.3 106.6ZM434.8 112.3Q431.1 112.3 429.1 110 427.1 107.8 427.1 103.6V88.9Q427.1 84.9 429.1 82.8 431 80.8 434.8 80.8 438.5 80.8 440.5 82.8 442.4 84.9 442.4 88.9V103.6Q442.4 107.8 440.4 110 438.5 112.3 434.8 112.3ZM434.8 106.6Q436.2 106.6 436.2 103.9V88.8Q436.2 86.5 434.9 86.5 433.3 86.5 433.3 88.8V103.9Q433.3 105.3 433.7 106 434 106.6 434.8 106.6ZM446.9 112V81.1H455.4Q458.7 81.1 460.4 82.9 462.1 84.8 462.1 88.3V102.8Q462.1 107.2 460.6 109.6 459 112 455.2 112ZM453.1 106.5H454.2Q455.9 106.5 455.9 104.9V88.9Q455.9 87.4 455.5 86.9 455.1 86.5 453.8 86.5H453.1ZM474 112.3Q469.8 112.3 467.9 110.2 466 108.1 466 103.5V100.4H472.1V104.3Q472.1 105.4 472.5 106 472.8 106.6 473.6 106.6 474.4 106.6 474.8 106.1 475.1 105.6 475.1 104.5 475.1 103.1 474.8 102.1 474.5 101.1 473.8 100.3 473.1 99.4 471.9 98.2L469.1 95.6Q466 92.7 466 88.9 466 84.9 467.9 82.9 469.7 80.8 473.2 80.8 477.4 80.8 479.2 83 481 85.3 481 89.9H474.7V87.8Q474.7 87.2 474.3 86.8 474 86.5 473.4 86.5 472.6 86.5 472.3 86.9 471.9 87.3 471.9 88 471.9 88.6 472.3 89.4 472.6 90.1 473.7 91.1L477.3 94.5Q478.3 95.5 479.2 96.7 480.1 97.8 480.7 99.3 481.2 100.8 481.2 103 481.2 107.3 479.6 109.8 478 112.3 474 112.3ZM484.9 112V106.7H491.2V112ZM495.1 112V106.7H501.4V112ZM505.3 112V106.7H511.6V112Z" fill="#111"/>
 </g>
 <rect id="panel-border" x="10" y="10" width="1004" height="1004" fill="none" stroke="#111" stroke-width="20"/>
</svg>
